<svg xmlns="http://www.w3.org/2000/svg" width="1024" height="1024" viewBox="0 0 1024 1024">
  <defs>
    <clipPath id="clipCircle">
      <circle cx="512" cy="512" r="260" />
    </clipPath>
  </defs>

  <rect class="bg" width="1024" height="1024" />

  <g clip-path="url(#clipCircle)">
    <g transform="translate(512 512) scale(1.9259) translate(-260 -300)">
      <path class="p1" d="M40 250 C135 224,208 216,252 230 C257 232,263 232,268 230 C312 216,385 224,480 250 L480 272 C385 250,312 242,268 254 C263 256,257 256,252 254 C208 242,135 250,40 272 Z" />
      <path class="p2" d="M30 280 C130 266,205 264,252 276 C258 278,262 278,268 276 C315 264,390 266,490 280 L490 306 C390 292,315 290,268 302 C262 304,258 304,252 302 C205 290,130 292,30 306 Z" />
      <path class="p3" d="M20 316 C128 308,202 310,250 326 C258 329,262 329,270 326 C318 310,392 308,500 316 L500 346 C392 340,318 342,270 358 C262 361,258 361,250 358 C202 342,128 340,20 346 Z" />
      <path class="p4" d="M30 352 C145 346,218 348,255 362 C259 364,261 364,265 362 C302 348,375 346,490 352 L490 384 C375 378,302 380,265 394 C261 396,259 396,255 394 C218 380,145 378,30 384 Z" />
      <path class="p5" d="M50 394 C165 394,220 404,260 410 C300 404,355 394,470 394 L470 440 C355 436,300 434,260 436 C220 434,165 436,50 440 Z" />
    </g>
  </g>

  <style>
    .bg { fill: #FFFFFF; }
    .p1 { fill: #D6D6D6; }
    .p2 { fill: #BDBDBD; }
    .p3 { fill: #A2A2A2; }
    .p4 { fill: #3F3F3F; }
    .p5 { fill: #6F6F6F; opacity: 0.55; }
    @media (prefers-color-scheme: dark) {
      .bg { fill: #0B0B0D; }
      .p1 { fill: #FFFFFF; opacity: 0.55; }
      .p2 { fill: #FFFFFF; opacity: 0.42; }
      .p3 { fill: #FFFFFF; opacity: 0.32; }
      .p4 { fill: #FFFFFF; opacity: 0.92; }
      .p5 { fill: #FFFFFF; opacity: 0.18; }
    }
  </style>
</svg>
